<svg xmlns="http://www.w3.org/2000/svg" xmlns:xlink="http://www.w3.org/1999/xlink" width="500" zoomAndPan="magnify" viewBox="0 0 375 374.999991" height="500" preserveAspectRatio="xMidYMid meet" version="1.0"><defs><clipPath id="0ad3db01ce"><path d="M 9 32 L 366 32 L 366 350.90625 L 9 350.90625 Z M 9 32 " clip-rule="nonzero"/></clipPath></defs><g clip-path="url(#0ad3db01ce)"><path fill="#ff5757" d="M 336.117188 62.691406 C 317.804688 44.390625 293.230469 33.660156 266.917969 32.492188 C 241.546875 31.335938 218.324219 39.433594 203.132812 54.621094 L 187.382812 70.359375 L 179.714844 62.691406 C 178.558594 61.535156 177.375 60.414062 176.167969 59.316406 C 174.957031 58.222656 173.722656 57.15625 172.460938 56.121094 C 171.199219 55.085938 169.910156 54.082031 168.601562 53.109375 C 167.289062 52.136719 165.957031 51.199219 164.597656 50.292969 C 163.242188 49.386719 161.863281 48.515625 160.460938 47.675781 C 159.0625 46.835938 157.640625 46.03125 156.203125 45.265625 C 154.761719 44.496094 153.304688 43.761719 151.828125 43.0625 C 150.351562 42.367188 148.863281 41.707031 147.351562 41.082031 C 145.84375 40.457031 144.324219 39.871094 142.785156 39.320312 C 141.25 38.769531 139.699219 38.257812 138.136719 37.785156 C 136.574219 37.3125 135.003906 36.878906 133.417969 36.480469 C 131.835938 36.085938 130.242188 35.726562 128.640625 35.410156 C 127.042969 35.089844 125.433594 34.8125 123.820312 34.570312 C 122.203125 34.332031 120.585938 34.132812 118.960938 33.972656 C 117.335938 33.8125 115.707031 33.691406 114.078125 33.613281 C 112.445312 33.535156 110.816406 33.492188 109.183594 33.492188 C 107.550781 33.492188 105.917969 33.535156 104.289062 33.613281 C 102.660156 33.695312 101.03125 33.8125 99.40625 33.972656 C 97.78125 34.132812 96.164062 34.332031 94.546875 34.574219 C 92.933594 34.8125 91.324219 35.089844 89.722656 35.410156 C 88.121094 35.726562 86.53125 36.085938 84.945312 36.480469 C 83.363281 36.878906 81.789062 37.3125 80.230469 37.785156 C 78.667969 38.257812 77.117188 38.769531 75.582031 39.320312 C 74.042969 39.871094 72.519531 40.457031 71.011719 41.082031 C 69.503906 41.707031 68.011719 42.367188 66.535156 43.066406 C 65.0625 43.761719 63.605469 44.496094 62.164062 45.265625 C 60.722656 46.035156 59.304688 46.835938 57.90625 47.675781 C 56.503906 48.515625 55.125 49.386719 53.769531 50.292969 C 52.410156 51.199219 51.078125 52.140625 49.765625 53.109375 C 48.453125 54.082031 47.167969 55.085938 45.90625 56.121094 C 44.644531 57.15625 43.410156 58.222656 42.199219 59.316406 C 40.988281 60.414062 39.808594 61.539062 38.652344 62.691406 C 37.5 63.84375 36.375 65.027344 35.277344 66.234375 C 34.179688 67.445312 33.117188 68.679688 32.078125 69.941406 C 31.042969 71.199219 30.039062 72.488281 29.066406 73.796875 C 28.09375 75.109375 27.15625 76.441406 26.25 77.796875 C 25.34375 79.152344 24.46875 80.53125 23.628906 81.929688 C 22.789062 83.332031 21.988281 84.75 21.21875 86.1875 C 20.449219 87.628906 19.714844 89.085938 19.015625 90.558594 C 18.316406 92.035156 17.65625 93.523438 17.03125 95.03125 C 16.40625 96.539062 15.820312 98.0625 15.269531 99.597656 C 14.71875 101.132812 14.207031 102.683594 13.734375 104.242188 C 13.261719 105.804688 12.824219 107.375 12.429688 108.957031 C 12.03125 110.542969 11.675781 112.132812 11.355469 113.734375 C 11.039062 115.332031 10.757812 116.941406 10.519531 118.554688 C 10.28125 120.167969 10.078125 121.785156 9.917969 123.410156 C 9.757812 125.035156 9.640625 126.660156 9.558594 128.289062 C 9.480469 129.917969 9.441406 131.550781 9.441406 133.179688 C 9.441406 134.8125 9.480469 136.441406 9.558594 138.070312 C 9.640625 139.703125 9.761719 141.328125 9.917969 142.953125 C 10.078125 144.574219 10.28125 146.195312 10.519531 147.808594 C 10.757812 149.421875 11.039062 151.027344 11.355469 152.628906 C 11.675781 154.230469 12.03125 155.820312 12.429688 157.402344 C 12.824219 158.984375 13.261719 160.558594 13.734375 162.117188 C 14.207031 163.679688 14.71875 165.226562 15.269531 166.765625 C 15.820312 168.300781 16.40625 169.820312 17.03125 171.328125 C 17.65625 172.835938 18.316406 174.328125 19.015625 175.800781 C 19.714844 177.277344 20.449219 178.734375 21.21875 180.171875 C 21.988281 181.613281 22.792969 183.03125 23.628906 184.429688 C 24.46875 185.828125 25.34375 187.207031 26.25 188.5625 C 27.15625 189.921875 28.097656 191.253906 29.070312 192.5625 C 30.042969 193.875 31.046875 195.160156 32.082031 196.421875 C 33.117188 197.683594 34.183594 198.917969 35.277344 200.125 C 36.375 201.335938 37.5 202.515625 38.65625 203.667969 L 50.234375 215.246094 C 50.179688 215.566406 50.132812 215.886719 50.085938 216.210938 L 50.046875 216.476562 C 48.675781 225.921875 51.566406 235.152344 57.980469 241.804688 C 59.375 243.261719 60.902344 244.5625 62.558594 245.714844 C 64.214844 246.863281 65.96875 247.835938 67.824219 248.636719 C 69.675781 249.433594 71.589844 250.039062 73.5625 250.453125 C 75.539062 250.867188 77.535156 251.078125 79.550781 251.09375 L 79.855469 251.09375 C 80.554688 251.09375 81.273438 251.0625 82.050781 251 C 81.113281 259.988281 84.023438 268.683594 90.144531 275.03125 C 91.539062 276.488281 93.066406 277.792969 94.722656 278.941406 C 96.378906 280.09375 98.136719 281.066406 99.988281 281.863281 C 101.839844 282.664062 103.753906 283.269531 105.730469 283.683594 C 107.703125 284.097656 109.699219 284.308594 111.71875 284.324219 L 112.019531 284.324219 C 112.71875 284.324219 113.4375 284.292969 114.21875 284.230469 C 113.277344 293.222656 116.191406 301.917969 122.3125 308.265625 C 123.707031 309.71875 125.230469 311.023438 126.886719 312.171875 C 128.542969 313.324219 130.300781 314.296875 132.152344 315.09375 C 134.003906 315.894531 135.917969 316.5 137.890625 316.914062 C 139.863281 317.324219 141.859375 317.539062 143.878906 317.554688 L 144.183594 317.554688 C 144.882812 317.554688 145.601562 317.523438 146.382812 317.460938 C 145.441406 326.453125 148.351562 335.148438 154.476562 341.492188 C 155.871094 342.949219 157.394531 344.253906 159.050781 345.402344 C 160.710938 346.554688 162.464844 347.527344 164.316406 348.324219 C 166.167969 349.121094 168.082031 349.730469 170.058594 350.140625 C 172.03125 350.554688 174.027344 350.769531 176.046875 350.78125 L 176.347656 350.78125 C 177.679688 350.773438 179.007812 350.679688 180.324219 350.496094 C 184.324219 349.980469 188.066406 348.710938 191.550781 346.683594 C 193.84375 345.359375 195.933594 343.761719 197.8125 341.894531 L 224.898438 314.828125 C 225.496094 314.230469 226.066406 313.609375 226.605469 312.976562 C 227.582031 312.957031 228.554688 312.890625 229.523438 312.78125 C 230.492188 312.667969 231.457031 312.507812 232.410156 312.300781 C 233.363281 312.097656 234.308594 311.847656 235.238281 311.550781 C 236.167969 311.253906 237.082031 310.914062 237.976562 310.527344 C 238.875 310.144531 239.753906 309.71875 240.609375 309.25 C 241.464844 308.78125 242.296875 308.269531 243.105469 307.722656 C 243.910156 307.171875 244.6875 306.585938 245.441406 305.960938 C 246.191406 305.335938 246.910156 304.675781 247.59375 303.984375 C 248.28125 303.289062 248.933594 302.566406 249.550781 301.808594 C 250.167969 301.050781 250.746094 300.265625 251.285156 299.457031 C 251.828125 298.644531 252.328125 297.804688 252.789062 296.945312 C 253.25 296.085938 253.667969 295.203125 254.042969 294.304688 C 254.417969 293.402344 254.746094 292.484375 255.035156 291.550781 C 255.320312 290.621094 255.5625 289.675781 255.757812 288.71875 C 255.953125 287.761719 256.101562 286.800781 256.203125 285.828125 C 256.304688 284.859375 256.359375 283.886719 256.371094 282.910156 L 256.382812 282.636719 C 256.382812 281.851562 256.34375 281.042969 256.261719 280.160156 C 257.144531 280.238281 257.949219 280.277344 258.726562 280.277344 L 258.988281 280.265625 C 259.972656 280.257812 260.953125 280.207031 261.929688 280.101562 C 262.90625 280 263.878906 279.851562 264.839844 279.65625 C 265.804688 279.457031 266.757812 279.214844 267.695312 278.925781 C 268.636719 278.636719 269.558594 278.304688 270.464844 277.925781 C 271.371094 277.546875 272.257812 277.125 273.125 276.65625 C 273.988281 276.191406 274.832031 275.6875 275.648438 275.140625 C 276.464844 274.59375 277.253906 274.007812 278.011719 273.382812 C 278.769531 272.757812 279.5 272.101562 280.195312 271.40625 C 280.890625 270.710938 281.546875 269.984375 282.171875 269.222656 C 282.796875 268.464844 283.382812 267.679688 283.929688 266.863281 C 284.476562 266.046875 284.984375 265.207031 285.449219 264.339844 C 285.917969 263.476562 286.339844 262.589844 286.71875 261.683594 C 287.097656 260.777344 287.433594 259.855469 287.722656 258.914062 C 288.011719 257.976562 288.253906 257.027344 288.449219 256.0625 C 288.648438 255.101562 288.796875 254.128906 288.898438 253.152344 C 289 252.175781 289.054688 251.195312 289.0625 250.214844 C 289.070312 249.335938 289.03125 248.429688 288.949219 247.472656 C 289.832031 247.554688 290.644531 247.59375 291.429688 247.59375 L 291.695312 247.582031 C 295.039062 247.546875 298.285156 246.976562 301.4375 245.871094 C 302.886719 245.371094 304.289062 244.765625 305.644531 244.054688 C 307.003906 243.339844 308.296875 242.527344 309.527344 241.617188 C 310.761719 240.707031 311.917969 239.707031 313 238.621094 C 314.078125 237.535156 315.070312 236.375 315.972656 235.136719 C 316.875 233.898438 317.679688 232.601562 318.386719 231.238281 C 319.089844 229.878906 319.6875 228.472656 320.179688 227.023438 C 320.671875 225.574219 321.046875 224.09375 321.3125 222.585938 C 321.578125 221.074219 321.726562 219.554688 321.761719 218.023438 L 336.121094 203.671875 C 337.273438 202.515625 338.394531 201.335938 339.492188 200.125 C 340.585938 198.914062 341.648438 197.679688 342.683594 196.417969 C 343.71875 195.15625 344.71875 193.871094 345.691406 192.558594 C 346.660156 191.25 347.601562 189.914062 348.503906 188.558594 C 349.410156 187.199219 350.28125 185.824219 351.121094 184.421875 C 351.957031 183.023438 352.761719 181.605469 353.53125 180.164062 C 354.296875 178.726562 355.03125 177.269531 355.726562 175.792969 C 356.425781 174.320312 357.085938 172.828125 357.707031 171.320312 C 358.332031 169.816406 358.917969 168.292969 359.46875 166.757812 C 360.015625 165.222656 360.527344 163.671875 361 162.113281 C 361.472656 160.550781 361.910156 158.980469 362.304688 157.398438 C 362.699219 155.816406 363.058594 154.222656 363.375 152.625 C 363.691406 151.023438 363.972656 149.417969 364.210938 147.804688 C 364.449219 146.191406 364.648438 144.574219 364.808594 142.949219 C 364.96875 141.328125 365.089844 139.703125 365.167969 138.070312 C 365.25 136.441406 365.289062 134.8125 365.289062 133.183594 C 365.289062 131.550781 365.25 129.921875 365.167969 128.292969 C 365.089844 126.664062 364.96875 125.039062 364.808594 123.414062 C 364.648438 121.792969 364.449219 120.171875 364.210938 118.558594 C 363.972656 116.945312 363.691406 115.339844 363.375 113.738281 C 363.058594 112.140625 362.699219 110.550781 362.304688 108.96875 C 361.910156 107.382812 361.472656 105.8125 361 104.253906 C 360.527344 102.691406 360.015625 101.144531 359.46875 99.605469 C 358.917969 98.070312 358.332031 96.550781 357.707031 95.042969 C 357.085938 93.535156 356.425781 92.042969 355.726562 90.570312 C 355.03125 89.09375 354.296875 87.636719 353.53125 86.199219 C 352.761719 84.761719 351.957031 83.339844 351.121094 81.941406 C 350.28125 80.542969 349.410156 79.164062 348.503906 77.808594 C 347.601562 76.449219 346.660156 75.117188 345.691406 73.804688 C 344.71875 72.496094 343.71875 71.207031 342.683594 69.945312 C 341.648438 68.683594 340.585938 67.449219 339.492188 66.238281 C 338.394531 65.03125 337.273438 63.847656 336.121094 62.695312 Z M 88.960938 235.199219 C 87.066406 236.398438 85.015625 237.1875 82.804688 237.570312 C 81.828125 237.742188 80.84375 237.832031 79.851562 237.835938 L 79.691406 237.835938 C 77.394531 237.816406 75.191406 237.355469 73.082031 236.445312 C 70.972656 235.539062 69.125 234.257812 67.53125 232.601562 C 66.113281 231.121094 65.015625 229.433594 64.238281 227.535156 C 62.976562 224.449219 62.632812 221.265625 63.207031 217.984375 C 63.53125 216.117188 64.128906 214.34375 64.996094 212.664062 C 65.867188 210.980469 66.96875 209.46875 68.300781 208.125 L 94.839844 181.597656 C 95.234375 181.203125 95.648438 180.828125 96.082031 180.472656 C 96.515625 180.117188 96.964844 179.785156 97.429688 179.472656 C 97.894531 179.160156 98.375 178.875 98.871094 178.609375 C 99.363281 178.34375 99.871094 178.105469 100.386719 177.890625 C 100.902344 177.675781 101.429688 177.488281 101.96875 177.324219 C 102.503906 177.164062 103.046875 177.027344 103.59375 176.917969 C 104.144531 176.808594 104.699219 176.726562 105.253906 176.671875 C 105.8125 176.617188 106.371094 176.589844 106.933594 176.589844 C 107.492188 176.589844 108.050781 176.617188 108.609375 176.671875 C 109.164062 176.726562 109.71875 176.808594 110.269531 176.914062 C 110.816406 177.023438 111.359375 177.160156 111.898438 177.324219 C 112.433594 177.484375 112.960938 177.675781 113.476562 177.886719 C 113.996094 178.101562 114.5 178.339844 114.996094 178.605469 C 115.488281 178.867188 115.96875 179.15625 116.433594 179.46875 C 116.898438 179.777344 117.347656 180.113281 117.78125 180.464844 C 118.214844 180.820312 118.628906 181.199219 119.027344 181.59375 C 119.421875 181.988281 119.796875 182.402344 120.152344 182.835938 C 120.507812 183.269531 120.84375 183.71875 121.152344 184.183594 C 121.464844 184.648438 121.753906 185.128906 122.015625 185.621094 C 122.28125 186.117188 122.519531 186.621094 122.734375 187.140625 C 122.949219 187.65625 123.136719 188.183594 123.296875 188.71875 C 123.460938 189.253906 123.597656 189.796875 123.707031 190.347656 C 123.816406 190.894531 123.898438 191.449219 123.953125 192.003906 C 124.007812 192.5625 124.035156 193.121094 124.035156 193.679688 C 124.035156 194.242188 124.007812 194.800781 123.953125 195.355469 C 123.894531 195.914062 123.8125 196.464844 123.703125 197.015625 C 123.59375 197.566406 123.460938 198.105469 123.296875 198.644531 C 123.132812 199.179688 122.945312 199.703125 122.730469 200.222656 C 122.515625 200.738281 122.277344 201.246094 122.011719 201.738281 C 121.746094 202.230469 121.460938 202.710938 121.148438 203.175781 C 120.835938 203.640625 120.503906 204.089844 120.148438 204.523438 C 119.792969 204.957031 119.417969 205.371094 119.019531 205.765625 L 118.503906 206.28125 C 118.480469 206.304688 91.9375 232.832031 91.9375 232.832031 C 91.03125 233.730469 90.039062 234.519531 88.960938 235.199219 Z M 121.773438 267.992188 C 119.96875 269.242188 117.996094 270.113281 115.855469 270.597656 C 114.539062 270.90625 113.207031 271.0625 111.859375 271.066406 C 109.5625 271.042969 107.359375 270.578125 105.25 269.671875 C 103.144531 268.765625 101.292969 267.484375 99.699219 265.832031 C 97.847656 263.902344 96.550781 261.65625 95.808594 259.089844 C 94.960938 256.179688 94.871094 253.25 95.539062 250.292969 C 96.019531 248.144531 96.867188 246.152344 98.074219 244.308594 C 98.769531 243.242188 99.566406 242.257812 100.464844 241.355469 L 127.003906 214.828125 C 127.402344 214.4375 127.816406 214.0625 128.25 213.710938 C 128.683594 213.359375 129.132812 213.027344 129.597656 212.71875 C 130.0625 212.410156 130.542969 212.125 131.035156 211.863281 C 131.527344 211.601562 132.035156 211.363281 132.550781 211.152344 C 133.066406 210.9375 133.59375 210.753906 134.128906 210.59375 C 134.664062 210.429688 135.207031 210.296875 135.753906 210.1875 C 136.300781 210.082031 136.855469 210 137.410156 209.945312 C 137.964844 209.894531 138.523438 209.867188 139.082031 209.867188 C 139.640625 209.871094 140.199219 209.898438 140.753906 209.953125 C 141.308594 210.007812 141.863281 210.089844 142.410156 210.199219 C 142.957031 210.3125 143.5 210.445312 144.03125 210.609375 C 144.566406 210.773438 145.09375 210.960938 145.609375 211.175781 C 146.125 211.390625 146.628906 211.628906 147.121094 211.890625 C 147.613281 212.15625 148.09375 212.441406 148.554688 212.75 C 149.019531 213.0625 149.46875 213.394531 149.902344 213.75 C 150.332031 214.101562 150.746094 214.476562 151.140625 214.871094 C 151.535156 215.265625 151.910156 215.679688 152.265625 216.113281 C 152.621094 216.542969 152.953125 216.992188 153.261719 217.457031 C 153.574219 217.917969 153.859375 218.398438 154.125 218.890625 C 154.386719 219.382812 154.628906 219.886719 154.839844 220.402344 C 155.054688 220.917969 155.246094 221.441406 155.40625 221.976562 C 155.570312 222.511719 155.707031 223.050781 155.816406 223.597656 C 155.925781 224.144531 156.007812 224.699219 156.0625 225.253906 C 156.121094 225.808594 156.148438 226.367188 156.148438 226.925781 C 156.148438 227.480469 156.125 228.039062 156.070312 228.59375 C 156.015625 229.152344 155.9375 229.703125 155.828125 230.25 C 155.722656 230.796875 155.585938 231.339844 155.425781 231.875 C 155.265625 232.410156 155.078125 232.933594 154.867188 233.453125 C 154.652344 233.96875 154.417969 234.472656 154.15625 234.964844 C 153.894531 235.457031 153.609375 235.9375 153.296875 236.402344 C 152.988281 236.867188 152.660156 237.316406 152.304688 237.75 C 151.953125 238.183594 151.578125 238.597656 151.1875 238.992188 L 150.667969 239.515625 C 150.640625 239.535156 124.101562 266.0625 124.101562 266.0625 C 123.382812 266.773438 122.605469 267.417969 121.773438 267.992188 Z M 148.902344 303.628906 C 147.558594 304.011719 146.1875 304.222656 144.792969 304.265625 C 144.585938 304.273438 144.386719 304.296875 144.183594 304.296875 L 144.019531 304.296875 C 143.386719 304.289062 142.757812 304.246094 142.132812 304.167969 C 140.175781 303.941406 138.316406 303.386719 136.550781 302.507812 C 134.789062 301.632812 133.226562 300.484375 131.863281 299.0625 C 129.648438 296.75 128.234375 294.023438 127.625 290.882812 C 127.074219 288.121094 127.179688 285.382812 127.933594 282.671875 C 128.800781 279.570312 130.367188 276.875 132.628906 274.585938 L 159.195312 248.035156 C 159.59375 247.644531 160.007812 247.273438 160.441406 246.925781 C 160.875 246.574219 161.324219 246.246094 161.789062 245.941406 C 162.257812 245.632812 162.734375 245.351562 163.230469 245.089844 C 163.722656 244.832031 164.226562 244.597656 164.742188 244.386719 C 165.261719 244.175781 165.785156 243.992188 166.320312 243.832031 C 166.855469 243.675781 167.394531 243.542969 167.941406 243.4375 C 168.488281 243.332031 169.039062 243.25 169.597656 243.199219 C 170.152344 243.148438 170.707031 243.125 171.265625 243.125 C 171.820312 243.128906 172.378906 243.15625 172.933594 243.214844 C 173.488281 243.269531 174.039062 243.355469 174.585938 243.464844 C 175.128906 243.574219 175.671875 243.714844 176.203125 243.875 C 176.738281 244.039062 177.261719 244.230469 177.773438 244.441406 C 178.289062 244.65625 178.792969 244.898438 179.285156 245.160156 C 179.773438 245.425781 180.25 245.710938 180.714844 246.023438 C 181.175781 246.332031 181.625 246.664062 182.054688 247.019531 C 182.484375 247.371094 182.898438 247.746094 183.292969 248.140625 C 183.683594 248.535156 184.058594 248.949219 184.414062 249.378906 C 184.765625 249.808594 185.097656 250.257812 185.40625 250.71875 C 185.714844 251.183594 186.003906 251.660156 186.265625 252.152344 C 186.527344 252.644531 186.765625 253.144531 186.980469 253.660156 C 187.195312 254.175781 187.382812 254.699219 187.546875 255.230469 C 187.707031 255.765625 187.84375 256.304688 187.953125 256.851562 C 188.0625 257.398438 188.148438 257.949219 188.203125 258.503906 C 188.257812 259.054688 188.285156 259.613281 188.289062 260.167969 C 188.289062 260.726562 188.265625 261.28125 188.210938 261.835938 C 188.15625 262.390625 188.078125 262.941406 187.972656 263.488281 C 187.863281 264.035156 187.730469 264.578125 187.570312 265.109375 C 187.410156 265.644531 187.226562 266.167969 187.015625 266.683594 C 186.804688 267.199219 186.566406 267.703125 186.308594 268.195312 C 186.046875 268.691406 185.761719 269.167969 185.457031 269.632812 C 185.148438 270.097656 184.820312 270.546875 184.46875 270.980469 C 184.117188 271.414062 183.746094 271.828125 183.351562 272.222656 L 182.8125 272.765625 L 178.863281 276.710938 L 156.269531 299.289062 C 154.191406 301.375 151.734375 302.820312 148.902344 303.628906 Z M 219.714844 298.519531 C 218.886719 301.175781 217.484375 303.488281 215.515625 305.457031 L 212.507812 308.464844 L 188.433594 332.523438 C 186.828125 334.121094 184.976562 335.351562 182.882812 336.21875 C 180.792969 337.085938 178.613281 337.519531 176.347656 337.527344 L 176.1875 337.527344 C 173.890625 337.511719 171.683594 337.050781 169.574219 336.140625 C 167.464844 335.234375 165.617188 333.949219 164.027344 332.292969 C 159.582031 327.683594 158.382812 321.003906 160.335938 315.058594 C 161.246094 312.289062 162.730469 309.875 164.796875 307.8125 L 187.386719 285.234375 L 191.335938 281.289062 C 192.007812 280.617188 192.730469 280.003906 193.503906 279.453125 C 194.277344 278.902344 195.09375 278.417969 195.945312 278 C 196.800781 277.585938 197.683594 277.242188 198.597656 276.976562 C 199.507812 276.707031 200.4375 276.515625 201.378906 276.402344 C 202.324219 276.289062 203.269531 276.253906 204.21875 276.296875 C 205.167969 276.339844 206.109375 276.464844 207.039062 276.664062 C 207.96875 276.867188 208.871094 277.140625 209.753906 277.492188 C 210.640625 277.847656 211.488281 278.269531 212.296875 278.761719 C 213.109375 279.253906 213.875 279.8125 214.597656 280.433594 C 215.316406 281.054688 215.976562 281.730469 216.585938 282.460938 C 217.191406 283.195312 217.734375 283.96875 218.210938 284.792969 C 218.6875 285.613281 219.089844 286.46875 219.425781 287.359375 C 219.757812 288.25 220.015625 289.160156 220.199219 290.09375 C 220.378906 291.023438 220.484375 291.964844 220.507812 292.914062 C 220.535156 293.863281 220.480469 294.808594 220.347656 295.75 C 220.210938 296.691406 220.003906 297.613281 219.714844 298.519531 Z M 303.519531 229.34375 C 303.125 229.738281 302.707031 230.109375 302.273438 230.464844 C 301.839844 230.816406 301.390625 231.148438 300.925781 231.457031 C 300.460938 231.765625 299.980469 232.054688 299.484375 232.316406 C 298.992188 232.578125 298.488281 232.816406 297.96875 233.027344 C 297.453125 233.242188 296.925781 233.429688 296.390625 233.589844 C 295.855469 233.753906 295.3125 233.886719 294.761719 233.996094 C 294.214844 234.105469 293.660156 234.1875 293.105469 234.242188 C 292.546875 234.296875 291.992188 234.324219 291.429688 234.324219 C 290.871094 234.324219 290.3125 234.296875 289.757812 234.242188 C 289.199219 234.1875 288.648438 234.105469 288.097656 233.996094 C 287.550781 233.886719 287.007812 233.753906 286.472656 233.589844 C 285.9375 233.429688 285.410156 233.242188 284.894531 233.027344 C 284.375 232.816406 283.871094 232.578125 283.375 232.316406 C 282.882812 232.054688 282.402344 231.765625 281.9375 231.457031 C 281.46875 231.148438 281.019531 230.816406 280.585938 230.464844 C 280.152344 230.109375 279.738281 229.738281 279.339844 229.34375 L 235.214844 185.246094 C 234.9375 184.964844 234.632812 184.714844 234.304688 184.496094 C 233.972656 184.277344 233.625 184.089844 233.261719 183.9375 C 232.894531 183.785156 232.519531 183.671875 232.128906 183.59375 C 231.742188 183.519531 231.347656 183.480469 230.953125 183.480469 C 230.558594 183.480469 230.164062 183.519531 229.777344 183.59375 C 229.386719 183.671875 229.011719 183.785156 228.644531 183.9375 C 228.28125 184.089844 227.933594 184.277344 227.601562 184.496094 C 227.273438 184.714844 226.96875 184.964844 226.691406 185.246094 C 226.410156 185.523438 226.160156 185.828125 225.941406 186.15625 C 225.71875 186.488281 225.535156 186.835938 225.382812 187.199219 C 225.230469 187.566406 225.117188 187.941406 225.039062 188.328125 C 224.960938 188.71875 224.921875 189.109375 224.921875 189.503906 C 224.921875 189.902344 224.960938 190.292969 225.039062 190.679688 C 225.117188 191.070312 225.230469 191.445312 225.382812 191.8125 C 225.535156 192.175781 225.71875 192.523438 225.941406 192.851562 C 226.160156 193.183594 226.410156 193.488281 226.691406 193.765625 L 270.8125 237.863281 C 273.027344 240.074219 274.515625 242.695312 275.277344 245.730469 C 275.632812 247.113281 275.8125 248.519531 275.820312 249.945312 C 275.820312 250.503906 275.792969 251.0625 275.738281 251.621094 C 275.683594 252.179688 275.601562 252.730469 275.492188 253.28125 C 275.382812 253.828125 275.246094 254.371094 275.085938 254.90625 C 274.921875 255.441406 274.734375 255.96875 274.519531 256.484375 C 274.304688 257.003906 274.066406 257.507812 273.800781 258.003906 C 273.539062 258.496094 273.25 258.976562 272.9375 259.441406 C 272.628906 259.90625 272.296875 260.355469 271.941406 260.789062 C 271.585938 261.21875 271.210938 261.632812 270.8125 262.03125 C 270.417969 262.425781 270.003906 262.800781 269.570312 263.15625 C 269.136719 263.511719 268.6875 263.84375 268.222656 264.15625 C 267.757812 264.464844 267.277344 264.753906 266.78125 265.015625 C 266.289062 265.28125 265.78125 265.519531 265.265625 265.734375 C 264.75 265.949219 264.222656 266.136719 263.683594 266.300781 C 263.148438 266.460938 262.605469 266.597656 262.058594 266.707031 C 261.507812 266.816406 260.957031 266.898438 260.398438 266.953125 C 259.839844 267.007812 259.28125 267.035156 258.722656 267.035156 C 257.292969 267.027344 255.886719 266.847656 254.5 266.492188 C 251.464844 265.726562 248.84375 264.242188 246.632812 262.027344 L 202.507812 217.929688 C 202.230469 217.652344 201.925781 217.402344 201.59375 217.183594 C 201.265625 216.964844 200.917969 216.777344 200.554688 216.628906 C 200.1875 216.476562 199.8125 216.363281 199.421875 216.285156 C 199.035156 216.210938 198.644531 216.171875 198.246094 216.171875 C 197.851562 216.171875 197.460938 216.210938 197.074219 216.289062 C 196.683594 216.367188 196.308594 216.480469 195.941406 216.632812 C 195.578125 216.78125 195.230469 216.96875 194.902344 217.1875 C 194.574219 217.40625 194.269531 217.65625 193.988281 217.9375 C 193.707031 218.214844 193.460938 218.519531 193.238281 218.847656 C 193.019531 219.179688 192.832031 219.523438 192.683594 219.890625 C 192.53125 220.253906 192.417969 220.632812 192.339844 221.019531 C 192.261719 221.40625 192.222656 221.796875 192.222656 222.195312 C 192.222656 222.589844 192.261719 222.980469 192.335938 223.367188 C 192.414062 223.757812 192.527344 224.132812 192.679688 224.496094 C 192.832031 224.863281 193.015625 225.210938 193.234375 225.539062 C 193.453125 225.867188 193.703125 226.171875 193.984375 226.453125 L 238.105469 270.550781 C 240.320312 272.761719 241.808594 275.382812 242.574219 278.414062 C 242.929688 279.796875 243.109375 281.203125 243.117188 282.632812 C 243.117188 283.496094 243.050781 284.351562 242.921875 285.203125 C 242.792969 286.054688 242.601562 286.894531 242.34375 287.714844 C 242.089844 288.539062 241.773438 289.335938 241.394531 290.113281 C 241.015625 290.886719 240.582031 291.628906 240.09375 292.335938 C 239.605469 293.046875 239.0625 293.714844 238.472656 294.339844 C 237.882812 294.96875 237.246094 295.546875 236.566406 296.078125 C 235.886719 296.609375 235.171875 297.085938 234.421875 297.507812 C 233.671875 297.933594 232.890625 298.296875 232.085938 298.601562 C 232.171875 298.140625 232.222656 297.679688 232.285156 297.214844 C 232.65625 294.40625 232.621094 291.601562 232.179688 288.800781 C 232.039062 287.882812 231.851562 286.972656 231.621094 286.074219 C 231.390625 285.175781 231.117188 284.289062 230.804688 283.414062 C 230.488281 282.542969 230.132812 281.6875 229.734375 280.847656 C 229.339844 280.007812 228.902344 279.191406 228.425781 278.390625 C 227.949219 277.59375 227.4375 276.824219 226.886719 276.074219 C 226.335938 275.328125 225.75 274.605469 225.132812 273.914062 C 224.511719 273.222656 223.859375 272.5625 223.179688 271.933594 C 222.496094 271.304688 221.785156 270.707031 221.042969 270.148438 C 220.304688 269.585938 219.539062 269.0625 218.746094 268.574219 C 217.957031 268.085938 217.144531 267.636719 216.3125 267.230469 C 215.476562 266.820312 214.625 266.449219 213.757812 266.121094 C 212.886719 265.792969 212.003906 265.507812 211.109375 265.265625 C 210.210938 265.023438 209.308594 264.824219 208.390625 264.667969 C 207.476562 264.511719 206.554688 264.398438 205.628906 264.332031 C 204.703125 264.261719 203.773438 264.238281 202.84375 264.261719 C 201.917969 264.28125 200.992188 264.347656 200.070312 264.457031 C 200.09375 264.292969 200.121094 264.132812 200.140625 263.964844 C 200.316406 262.699219 200.410156 261.421875 200.421875 260.140625 C 200.421875 259.117188 200.367188 258.09375 200.261719 257.074219 C 200.152344 256.054688 199.992188 255.046875 199.777344 254.042969 C 199.5625 253.039062 199.296875 252.050781 198.976562 251.078125 C 198.660156 250.105469 198.289062 249.148438 197.871094 248.214844 C 197.449219 247.28125 196.984375 246.371094 196.46875 245.484375 C 195.953125 244.597656 195.390625 243.742188 194.785156 242.914062 C 194.175781 242.089844 193.527344 241.296875 192.839844 240.539062 C 192.148438 239.78125 191.421875 239.0625 190.652344 238.382812 C 189.886719 237.699219 189.085938 237.0625 188.253906 236.464844 C 187.417969 235.867188 186.558594 235.316406 185.664062 234.8125 C 184.773438 234.308594 183.855469 233.851562 182.914062 233.441406 C 181.976562 233.03125 181.015625 232.675781 180.039062 232.367188 C 179.058594 232.0625 178.066406 231.804688 177.0625 231.601562 C 176.058594 231.402344 175.042969 231.253906 174.023438 231.15625 C 173.003906 231.0625 171.980469 231.019531 170.953125 231.03125 C 169.929688 231.042969 168.90625 231.113281 167.890625 231.230469 C 167.914062 231.074219 167.9375 230.914062 167.957031 230.757812 C 168.097656 229.730469 168.179688 228.703125 168.210938 227.667969 C 168.238281 226.632812 168.210938 225.601562 168.128906 224.570312 C 168.050781 223.539062 167.914062 222.511719 167.722656 221.496094 C 167.53125 220.480469 167.289062 219.476562 166.988281 218.484375 C 166.691406 217.492188 166.339844 216.519531 165.941406 215.566406 C 165.539062 214.613281 165.085938 213.683594 164.585938 212.777344 C 164.085938 211.871094 163.535156 210.996094 162.941406 210.148438 C 162.347656 209.300781 161.710938 208.488281 161.027344 207.710938 C 160.347656 206.933594 159.625 206.191406 158.863281 205.488281 C 158.105469 204.789062 157.308594 204.128906 156.476562 203.511719 C 155.644531 202.894531 154.785156 202.320312 153.894531 201.796875 C 153 201.273438 152.082031 200.796875 151.140625 200.367188 C 150.199219 199.941406 149.234375 199.566406 148.25 199.238281 C 147.269531 198.914062 146.269531 198.644531 145.257812 198.425781 C 144.246094 198.207031 143.226562 198.042969 142.195312 197.933594 C 141.167969 197.824219 140.132812 197.769531 139.097656 197.773438 C 137.972656 197.777344 136.847656 197.847656 135.726562 197.984375 C 135.75 197.832031 135.769531 197.679688 135.792969 197.527344 C 136.0625 195.507812 136.121094 193.480469 135.96875 191.445312 C 135.8125 189.414062 135.445312 187.417969 134.871094 185.460938 C 134.296875 183.503906 133.527344 181.628906 132.554688 179.835938 C 131.585938 178.039062 130.441406 176.367188 129.121094 174.8125 C 128.617188 174.222656 128.109375 173.632812 127.550781 173.078125 C 126.992188 172.519531 126.40625 172.011719 125.816406 171.511719 C 123.726562 169.730469 121.433594 168.28125 118.929688 167.152344 C 116.425781 166.027344 113.816406 165.269531 111.101562 164.886719 C 109.148438 164.605469 107.1875 164.523438 105.21875 164.636719 C 104.503906 164.679688 103.792969 164.746094 103.085938 164.839844 C 99.910156 165.25 96.890625 166.160156 94.019531 167.570312 C 91.144531 168.980469 88.578125 170.816406 86.316406 173.078125 C 86.316406 173.078125 59.777344 199.601562 59.777344 199.601562 C 58.707031 200.6875 57.722656 201.847656 56.828125 203.082031 L 48.035156 194.296875 C 47.03125 193.296875 46.054688 192.273438 45.105469 191.222656 C 44.152344 190.175781 43.230469 189.105469 42.332031 188.011719 C 41.429688 186.917969 40.558594 185.804688 39.714844 184.667969 C 38.871094 183.53125 38.058594 182.375 37.269531 181.199219 C 36.484375 180.023438 35.726562 178.828125 34.996094 177.617188 C 34.269531 176.402344 33.570312 175.171875 32.902344 173.925781 C 32.234375 172.675781 31.597656 171.414062 30.992188 170.132812 C 30.386719 168.855469 29.8125 167.5625 29.269531 166.257812 C 28.726562 164.949219 28.21875 163.628906 27.742188 162.296875 C 27.261719 160.964844 26.820312 159.621094 26.40625 158.269531 C 25.996094 156.914062 25.617188 155.550781 25.273438 154.179688 C 24.929688 152.804688 24.617188 151.425781 24.339844 150.039062 C 24.066406 148.652344 23.824219 147.257812 23.613281 145.859375 C 23.40625 144.457031 23.234375 143.054688 23.09375 141.648438 C 22.953125 140.238281 22.851562 138.828125 22.78125 137.414062 C 22.710938 136 22.675781 134.585938 22.675781 133.171875 C 22.675781 131.757812 22.707031 130.34375 22.777344 128.929688 C 22.847656 127.515625 22.949219 126.105469 23.089844 124.699219 C 23.226562 123.289062 23.402344 121.886719 23.609375 120.488281 C 23.816406 119.085938 24.058594 117.691406 24.332031 116.304688 C 24.609375 114.917969 24.917969 113.539062 25.261719 112.164062 C 25.605469 110.792969 25.984375 109.429688 26.394531 108.074219 C 26.804688 106.71875 27.25 105.378906 27.726562 104.046875 C 28.203125 102.714844 28.710938 101.394531 29.253906 100.085938 C 29.796875 98.777344 30.367188 97.484375 30.972656 96.207031 C 31.578125 94.925781 32.214844 93.664062 32.882812 92.414062 C 33.550781 91.167969 34.246094 89.9375 34.976562 88.722656 C 35.703125 87.507812 36.460938 86.3125 37.246094 85.136719 C 38.03125 83.960938 38.847656 82.804688 39.691406 81.667969 C 40.535156 80.53125 41.40625 79.417969 42.304688 78.324219 C 43.199219 77.230469 44.125 76.15625 45.074219 75.109375 C 46.027344 74.0625 47.003906 73.035156 48.003906 72.035156 C 49.003906 71.035156 50.03125 70.058594 51.078125 69.109375 C 52.128906 68.160156 53.199219 67.234375 54.292969 66.339844 C 55.386719 65.441406 56.503906 64.570312 57.640625 63.726562 C 58.777344 62.886719 59.9375 62.070312 61.113281 61.285156 C 62.289062 60.5 63.484375 59.742188 64.699219 59.015625 C 65.914062 58.289062 67.144531 57.589844 68.394531 56.921875 C 69.644531 56.257812 70.90625 55.621094 72.1875 55.015625 C 73.46875 54.410156 74.761719 53.835938 76.070312 53.296875 C 77.378906 52.753906 78.699219 52.246094 80.03125 51.769531 C 81.363281 51.292969 82.707031 50.847656 84.0625 50.4375 C 85.417969 50.027344 86.78125 49.652344 88.15625 49.308594 C 89.527344 48.964844 90.910156 48.65625 92.296875 48.378906 C 93.6875 48.101562 95.082031 47.863281 96.480469 47.652344 C 97.882812 47.445312 99.285156 47.273438 100.695312 47.136719 C 102.105469 46.996094 103.515625 46.894531 104.929688 46.824219 C 106.34375 46.753906 107.757812 46.722656 109.175781 46.722656 C 110.589844 46.722656 112.003906 46.757812 113.417969 46.828125 C 114.832031 46.894531 116.246094 47 117.652344 47.140625 C 119.0625 47.277344 120.46875 47.453125 121.867188 47.660156 C 123.269531 47.867188 124.664062 48.109375 126.050781 48.386719 C 127.4375 48.664062 128.820312 48.972656 130.195312 49.316406 C 131.566406 49.664062 132.929688 50.039062 134.285156 50.449219 C 135.640625 50.863281 136.984375 51.304688 138.316406 51.785156 C 139.648438 52.261719 140.96875 52.769531 142.277344 53.3125 C 143.585938 53.855469 144.878906 54.429688 146.160156 55.035156 C 147.4375 55.636719 148.703125 56.273438 149.949219 56.941406 C 151.199219 57.609375 152.429688 58.308594 153.644531 59.035156 C 154.859375 59.761719 156.054688 60.519531 157.230469 61.308594 C 158.40625 62.09375 159.5625 62.910156 160.699219 63.753906 C 161.835938 64.597656 162.953125 65.464844 164.046875 66.363281 C 165.140625 67.261719 166.210938 68.1875 167.261719 69.136719 C 168.308594 70.089844 169.332031 71.0625 170.332031 72.066406 L 178.859375 80.585938 L 126.375 133.039062 C 125.808594 133.609375 125.300781 134.226562 124.851562 134.894531 C 124.402344 135.5625 124.019531 136.265625 123.707031 137.003906 C 123.390625 137.742188 123.152344 138.503906 122.980469 139.289062 C 122.8125 140.078125 122.71875 140.871094 122.703125 141.675781 C 122.683594 142.476562 122.742188 143.273438 122.878906 144.066406 C 123.011719 144.859375 123.222656 145.632812 123.503906 146.382812 C 123.785156 147.136719 124.136719 147.855469 124.558594 148.539062 C 124.976562 149.226562 125.457031 149.867188 126 150.460938 C 126.132812 150.609375 126.234375 150.777344 126.378906 150.921875 C 127.433594 151.980469 128.542969 152.980469 129.699219 153.925781 C 130.855469 154.875 132.054688 155.761719 133.300781 156.589844 C 134.542969 157.417969 135.824219 158.183594 137.144531 158.890625 C 138.460938 159.59375 139.8125 160.230469 141.195312 160.800781 C 142.574219 161.371094 143.980469 161.875 145.414062 162.308594 C 146.84375 162.738281 148.292969 163.101562 149.757812 163.394531 C 151.222656 163.683594 152.699219 163.902344 154.1875 164.050781 C 155.675781 164.195312 157.167969 164.269531 158.664062 164.269531 C 160.15625 164.269531 161.648438 164.195312 163.136719 164.050781 C 164.625 163.902344 166.101562 163.683594 167.566406 163.394531 C 169.035156 163.101562 170.484375 162.738281 171.914062 162.308594 C 173.34375 161.875 174.75 161.371094 176.132812 160.800781 C 177.511719 160.230469 178.863281 159.59375 180.183594 158.890625 C 181.5 158.183594 182.78125 157.417969 184.027344 156.589844 C 185.269531 155.761719 186.46875 154.875 187.625 153.925781 C 188.78125 152.980469 189.890625 151.980469 190.949219 150.921875 L 220.089844 121.796875 L 259.398438 161.078125 L 270.191406 171.863281 L 303.523438 205.175781 C 303.917969 205.574219 304.292969 205.988281 304.644531 206.421875 C 305 206.855469 305.328125 207.304688 305.640625 207.769531 C 305.949219 208.234375 306.234375 208.714844 306.496094 209.210938 C 306.761719 209.703125 306.996094 210.207031 307.210938 210.726562 C 307.425781 211.242188 307.609375 211.769531 307.773438 212.304688 C 307.933594 212.839844 308.070312 213.378906 308.179688 213.929688 C 308.285156 214.476562 308.367188 215.03125 308.421875 215.585938 C 308.476562 216.144531 308.503906 216.699219 308.503906 217.261719 C 308.503906 217.820312 308.476562 218.375 308.421875 218.933594 C 308.367188 219.488281 308.285156 220.042969 308.179688 220.589844 C 308.070312 221.140625 307.933594 221.679688 307.773438 222.214844 C 307.609375 222.75 307.425781 223.277344 307.210938 223.792969 C 306.996094 224.3125 306.761719 224.816406 306.496094 225.308594 C 306.234375 225.804688 305.949219 226.285156 305.640625 226.75 C 305.328125 227.214844 305 227.664062 304.644531 228.097656 C 304.292969 228.53125 303.917969 228.945312 303.523438 229.34375 Z M 326.738281 194.296875 L 317.269531 203.761719 C 315.894531 201.125 314.152344 198.757812 312.046875 196.65625 L 278.714844 163.34375 L 267.925781 152.554688 L 226.722656 111.378906 C 226.617188 110.84375 226.441406 110.332031 226.195312 109.847656 C 225.949219 109.359375 225.644531 108.914062 225.277344 108.507812 C 224.910156 108.105469 224.496094 107.757812 224.035156 107.464844 C 223.574219 107.171875 223.082031 106.945312 222.5625 106.789062 C 222.039062 106.628906 221.503906 106.542969 220.960938 106.53125 C 220.414062 106.515625 219.875 106.578125 219.347656 106.710938 C 218.816406 106.839844 218.316406 107.042969 217.839844 107.3125 C 217.363281 107.578125 216.933594 107.90625 216.546875 108.292969 L 211.566406 113.273438 L 182.421875 142.402344 C 181.644531 143.179688 180.828125 143.914062 179.976562 144.609375 C 179.125 145.308594 178.242188 145.960938 177.328125 146.570312 C 176.414062 147.179688 175.46875 147.746094 174.5 148.261719 C 173.527344 148.78125 172.535156 149.25 171.519531 149.667969 C 170.5 150.089844 169.46875 150.460938 168.414062 150.777344 C 167.363281 151.097656 166.296875 151.363281 165.214844 151.578125 C 164.136719 151.792969 163.050781 151.953125 161.957031 152.058594 C 160.859375 152.167969 159.761719 152.222656 158.664062 152.222656 C 157.5625 152.222656 156.464844 152.167969 155.371094 152.058594 C 154.277344 151.953125 153.1875 151.792969 152.109375 151.578125 C 151.03125 151.363281 149.964844 151.097656 148.914062 150.777344 C 147.859375 150.460938 146.824219 150.089844 145.808594 149.667969 C 144.792969 149.25 143.796875 148.78125 142.828125 148.261719 C 141.855469 147.746094 140.914062 147.179688 140 146.570312 C 139.082031 145.960938 138.199219 145.308594 137.347656 144.609375 C 136.496094 143.914062 135.683594 143.179688 134.90625 142.402344 C 134.789062 142.285156 134.730469 142.144531 134.730469 141.980469 C 134.730469 141.816406 134.789062 141.675781 134.90625 141.558594 L 187.386719 89.109375 L 191.648438 84.847656 L 195.914062 80.585938 L 204.4375 72.066406 C 204.449219 72.050781 212.511719 63.992188 212.511719 63.992188 C 242.402344 34.125 298.457031 43.804688 326.738281 72.066406 C 360.457031 105.765625 360.457031 160.597656 326.738281 194.296875 Z M 326.738281 194.296875 " fill-opacity="1" fill-rule="nonzero"/></g></svg>