<svg xmlns="http://www.w3.org/2000/svg" xmlns:xlink="http://www.w3.org/1999/xlink" width="500" zoomAndPan="magnify" viewBox="0 0 375 374.999991" height="500" preserveAspectRatio="xMidYMid meet" version="1.0"><defs><g/><clipPath id="e9a4d3ac2b"><path d="M 137 143 L 238 143 L 238 233.550781 L 137 233.550781 Z M 137 143 " clip-rule="nonzero"/></clipPath></defs><g clip-path="url(#e9a4d3ac2b)"><path fill="#89ceff" d="M 229.335938 152.242188 C 224.171875 147.082031 217.242188 144.054688 209.820312 143.722656 C 202.667969 143.398438 196.117188 145.683594 191.832031 149.964844 L 187.394531 154.40625 L 185.230469 152.242188 C 184.578125 151.59375 183.894531 150.972656 183.183594 150.390625 C 182.472656 149.804688 181.734375 149.257812 180.96875 148.746094 C 180.199219 148.234375 179.410156 147.761719 178.597656 147.328125 C 177.785156 146.894531 176.957031 146.5 176.105469 146.148438 C 175.253906 145.792969 174.386719 145.484375 173.503906 145.21875 C 172.625 144.949219 171.730469 144.726562 170.828125 144.546875 C 169.925781 144.367188 169.015625 144.230469 168.097656 144.140625 C 167.179688 144.050781 166.261719 144.007812 165.339844 144.007812 C 164.417969 144.007812 163.5 144.050781 162.582031 144.140625 C 161.667969 144.230469 160.757812 144.367188 159.851562 144.546875 C 158.949219 144.726562 158.054688 144.949219 157.175781 145.21875 C 156.292969 145.484375 155.425781 145.792969 154.574219 146.148438 C 153.726562 146.5 152.894531 146.894531 152.082031 147.328125 C 151.269531 147.761719 150.480469 148.234375 149.714844 148.746094 C 148.945312 149.257812 148.207031 149.804688 147.496094 150.390625 C 146.785156 150.972656 146.101562 151.59375 145.449219 152.242188 C 144.800781 152.894531 144.179688 153.578125 143.597656 154.289062 C 143.011719 155 142.464844 155.738281 141.953125 156.503906 C 141.441406 157.269531 140.96875 158.058594 140.535156 158.871094 C 140.097656 159.683594 139.707031 160.515625 139.351562 161.367188 C 139 162.21875 138.691406 163.085938 138.421875 163.964844 C 138.15625 164.847656 137.933594 165.738281 137.753906 166.644531 C 137.574219 167.546875 137.4375 168.457031 137.347656 169.371094 C 137.257812 170.289062 137.210938 171.207031 137.210938 172.128906 C 137.210938 173.050781 137.257812 173.96875 137.347656 174.886719 C 137.4375 175.800781 137.574219 176.710938 137.753906 177.617188 C 137.933594 178.519531 138.15625 179.410156 138.421875 180.292969 C 138.691406 181.175781 139 182.039062 139.355469 182.890625 C 139.707031 183.742188 140.097656 184.574219 140.535156 185.386719 C 140.96875 186.199219 141.441406 186.988281 141.953125 187.753906 C 142.464844 188.519531 143.011719 189.257812 143.597656 189.96875 C 144.179688 190.683594 144.800781 191.363281 145.449219 192.015625 L 148.71875 195.28125 C 148.703125 195.371094 148.6875 195.460938 148.675781 195.550781 L 148.664062 195.628906 C 148.277344 198.292969 149.09375 200.894531 150.902344 202.773438 C 151.695312 203.601562 152.621094 204.246094 153.675781 204.699219 C 154.730469 205.15625 155.835938 205.386719 156.984375 205.394531 L 157.070312 205.394531 C 157.265625 205.394531 157.46875 205.382812 157.6875 205.367188 C 157.425781 207.902344 158.246094 210.355469 159.972656 212.144531 C 160.765625 212.976562 161.691406 213.617188 162.746094 214.074219 C 163.800781 214.527344 164.90625 214.757812 166.054688 214.765625 L 166.140625 214.769531 C 166.335938 214.769531 166.539062 214.757812 166.761719 214.742188 C 166.496094 217.277344 167.316406 219.730469 169.042969 221.519531 C 169.835938 222.351562 170.761719 222.992188 171.816406 223.449219 C 172.871094 223.902344 173.976562 224.132812 175.125 224.140625 L 175.210938 224.140625 C 175.40625 224.140625 175.609375 224.132812 175.828125 224.117188 C 175.566406 226.652344 176.386719 229.105469 178.113281 230.894531 C 178.90625 231.726562 179.832031 232.367188 180.886719 232.824219 C 181.945312 233.277344 183.046875 233.507812 184.195312 233.515625 L 184.28125 233.515625 C 184.65625 233.515625 185.03125 233.488281 185.402344 233.433594 C 186.53125 233.289062 187.585938 232.929688 188.566406 232.359375 C 189.214844 231.984375 189.804688 231.535156 190.332031 231.007812 L 197.972656 223.375 C 198.140625 223.203125 198.300781 223.03125 198.453125 222.851562 C 199.003906 222.839844 199.550781 222.777344 200.089844 222.660156 C 200.628906 222.542969 201.152344 222.378906 201.660156 222.160156 C 202.167969 221.941406 202.648438 221.679688 203.105469 221.367188 C 203.5625 221.058594 203.984375 220.707031 204.371094 220.3125 C 204.761719 219.921875 205.109375 219.496094 205.414062 219.035156 C 205.71875 218.578125 205.976562 218.09375 206.191406 217.582031 C 206.402344 217.074219 206.5625 216.546875 206.675781 216.007812 C 206.785156 215.46875 206.84375 214.921875 206.847656 214.367188 L 206.851562 214.292969 C 206.851562 214.070312 206.839844 213.84375 206.816406 213.59375 C 207.066406 213.613281 207.292969 213.625 207.511719 213.625 L 207.585938 213.621094 C 208.140625 213.621094 208.691406 213.5625 209.234375 213.449219 C 209.78125 213.339844 210.308594 213.175781 210.820312 212.960938 C 211.335938 212.746094 211.820312 212.484375 212.28125 212.175781 C 212.746094 211.867188 213.171875 211.515625 213.566406 211.125 C 213.957031 210.730469 214.308594 210.304688 214.617188 209.839844 C 214.929688 209.378906 215.191406 208.894531 215.40625 208.378906 C 215.621094 207.867188 215.78125 207.339844 215.894531 206.796875 C 216.003906 206.25 216.0625 205.699219 216.066406 205.144531 C 216.066406 204.898438 216.058594 204.640625 216.035156 204.371094 C 216.285156 204.394531 216.511719 204.40625 216.734375 204.40625 L 216.808594 204.402344 C 217.75 204.390625 218.667969 204.230469 219.554688 203.921875 C 220.378906 203.636719 221.136719 203.238281 221.835938 202.71875 C 222.535156 202.203125 223.140625 201.59375 223.65625 200.890625 C 224.167969 200.1875 224.5625 199.425781 224.839844 198.601562 C 225.121094 197.78125 225.269531 196.933594 225.285156 196.0625 L 229.335938 192.015625 C 229.988281 191.363281 230.605469 190.679688 231.1875 189.96875 C 231.769531 189.257812 232.316406 188.515625 232.828125 187.75 C 233.339844 186.984375 233.8125 186.195312 234.246094 185.382812 C 234.679688 184.570312 235.074219 183.738281 235.425781 182.890625 C 235.777344 182.039062 236.085938 181.171875 236.351562 180.289062 C 236.621094 179.410156 236.84375 178.515625 237.023438 177.613281 C 237.203125 176.710938 237.335938 175.800781 237.425781 174.886719 C 237.515625 173.96875 237.5625 173.050781 237.5625 172.128906 C 237.5625 171.207031 237.515625 170.289062 237.425781 169.375 C 237.335938 168.457031 237.203125 167.546875 237.023438 166.644531 C 236.84375 165.742188 236.621094 164.847656 236.351562 163.96875 C 236.085938 163.085938 235.777344 162.222656 235.425781 161.371094 C 235.074219 160.519531 234.679688 159.6875 234.246094 158.875 C 233.8125 158.0625 233.339844 157.273438 232.828125 156.507812 C 232.316406 155.742188 231.769531 155.003906 231.1875 154.289062 C 230.605469 153.578125 229.988281 152.894531 229.335938 152.242188 Z M 159.636719 200.910156 C 159.101562 201.246094 158.523438 201.46875 157.902344 201.578125 C 157.625 201.625 157.347656 201.652344 157.070312 201.652344 L 157.023438 201.652344 C 156.375 201.648438 155.753906 201.515625 155.160156 201.261719 C 154.566406 201.003906 154.042969 200.644531 153.59375 200.175781 C 153.195312 199.757812 152.882812 199.28125 152.664062 198.746094 C 152.308594 197.875 152.214844 196.980469 152.375 196.050781 C 152.5625 194.976562 153.042969 194.046875 153.8125 193.269531 L 161.296875 185.789062 C 161.519531 185.5625 161.761719 185.363281 162.027344 185.1875 C 162.289062 185.011719 162.566406 184.863281 162.859375 184.742188 C 163.152344 184.621094 163.453125 184.53125 163.765625 184.46875 C 164.074219 184.40625 164.386719 184.375 164.707031 184.375 C 165.023438 184.375 165.335938 184.40625 165.644531 184.46875 C 165.957031 184.527344 166.257812 184.621094 166.550781 184.742188 C 166.84375 184.863281 167.121094 185.011719 167.386719 185.1875 C 167.648438 185.363281 167.890625 185.5625 168.117188 185.785156 C 168.339844 186.011719 168.539062 186.253906 168.714844 186.515625 C 168.890625 186.78125 169.039062 187.058594 169.160156 187.351562 C 169.28125 187.644531 169.375 187.945312 169.4375 188.253906 C 169.496094 188.566406 169.527344 188.878906 169.527344 189.195312 C 169.527344 189.511719 169.496094 189.828125 169.433594 190.136719 C 169.375 190.449219 169.28125 190.75 169.160156 191.042969 C 169.039062 191.335938 168.890625 191.613281 168.714844 191.875 C 168.539062 192.136719 168.339844 192.382812 168.113281 192.605469 L 167.96875 192.75 C 167.960938 192.757812 160.476562 200.242188 160.476562 200.242188 C 160.222656 200.496094 159.941406 200.71875 159.636719 200.910156 Z M 168.890625 210.160156 C 168.382812 210.511719 167.824219 210.757812 167.222656 210.894531 C 166.851562 210.980469 166.476562 211.027344 166.09375 211.027344 C 165.445312 211.019531 164.824219 210.890625 164.230469 210.632812 C 163.636719 210.378906 163.113281 210.015625 162.664062 209.550781 C 162.144531 209.007812 161.777344 208.371094 161.570312 207.648438 C 161.328125 206.828125 161.304688 206 161.492188 205.167969 C 161.628906 204.5625 161.867188 204 162.207031 203.480469 C 162.402344 203.179688 162.628906 202.898438 162.882812 202.644531 L 170.367188 195.164062 C 170.589844 194.941406 170.832031 194.742188 171.097656 194.566406 C 171.359375 194.390625 171.636719 194.246094 171.929688 194.125 C 172.222656 194.003906 172.523438 193.914062 172.832031 193.855469 C 173.144531 193.792969 173.457031 193.761719 173.773438 193.761719 C 174.085938 193.765625 174.398438 193.796875 174.710938 193.855469 C 175.019531 193.917969 175.320312 194.011719 175.613281 194.132812 C 175.902344 194.253906 176.179688 194.402344 176.441406 194.578125 C 176.707031 194.753906 176.949219 194.953125 177.171875 195.175781 C 177.394531 195.398438 177.59375 195.640625 177.769531 195.902344 C 177.945312 196.167969 178.09375 196.441406 178.214844 196.734375 C 178.335938 197.027344 178.429688 197.328125 178.492188 197.636719 C 178.550781 197.945312 178.582031 198.257812 178.585938 198.574219 C 178.585938 198.890625 178.554688 199.203125 178.492188 199.511719 C 178.433594 199.824219 178.34375 200.125 178.222656 200.417969 C 178.101562 200.707031 177.957031 200.984375 177.78125 201.25 C 177.605469 201.511719 177.40625 201.753906 177.183594 201.980469 L 177.039062 202.125 C 177.03125 202.132812 169.546875 209.617188 169.546875 209.617188 C 169.34375 209.816406 169.125 210 168.890625 210.160156 Z M 176.542969 220.214844 C 176.160156 220.320312 175.777344 220.382812 175.382812 220.394531 C 175.324219 220.394531 175.265625 220.402344 175.210938 220.402344 L 175.164062 220.402344 C 174.984375 220.398438 174.808594 220.386719 174.632812 220.367188 C 173.492188 220.234375 172.527344 219.753906 171.734375 218.925781 C 171.113281 218.273438 170.710938 217.503906 170.539062 216.617188 C 170.386719 215.839844 170.414062 215.066406 170.628906 214.300781 C 170.871094 213.425781 171.3125 212.667969 171.953125 212.019531 L 179.445312 204.53125 C 179.667969 204.308594 179.910156 204.113281 180.175781 203.9375 C 180.4375 203.765625 180.714844 203.621094 181.007812 203.5 C 181.300781 203.382812 181.601562 203.292969 181.910156 203.234375 C 182.21875 203.171875 182.53125 203.144531 182.847656 203.144531 C 183.164062 203.148438 183.472656 203.179688 183.785156 203.242188 C 184.09375 203.304688 184.390625 203.394531 184.683594 203.515625 C 184.972656 203.636719 185.25 203.785156 185.511719 203.960938 C 185.773438 204.136719 186.015625 204.335938 186.238281 204.558594 C 186.460938 204.78125 186.660156 205.027344 186.835938 205.289062 C 187.011719 205.550781 187.160156 205.828125 187.277344 206.117188 C 187.398438 206.410156 187.492188 206.707031 187.554688 207.015625 C 187.617188 207.328125 187.648438 207.636719 187.648438 207.953125 C 187.648438 208.269531 187.617188 208.582031 187.558594 208.890625 C 187.496094 209.199219 187.40625 209.5 187.289062 209.792969 C 187.167969 210.082031 187.023438 210.359375 186.847656 210.625 C 186.675781 210.886719 186.476562 211.128906 186.257812 211.355469 L 186.101562 211.507812 L 184.988281 212.621094 L 178.617188 218.988281 C 178.03125 219.578125 177.339844 219.984375 176.539062 220.214844 Z M 196.511719 218.773438 C 196.277344 219.523438 195.882812 220.175781 195.324219 220.730469 L 194.476562 221.578125 L 187.6875 228.363281 C 186.746094 229.300781 185.609375 229.773438 184.28125 229.777344 L 184.234375 229.777344 C 183.585938 229.773438 182.964844 229.640625 182.371094 229.386719 C 181.777344 229.128906 181.253906 228.765625 180.804688 228.300781 C 179.550781 227 179.214844 225.113281 179.765625 223.4375 C 180.023438 222.65625 180.441406 221.976562 181.023438 221.394531 L 188.507812 213.910156 C 188.886719 213.53125 189.320312 213.21875 189.808594 212.984375 C 190.292969 212.746094 190.804688 212.597656 191.339844 212.53125 C 191.875 212.46875 192.40625 212.492188 192.933594 212.605469 C 193.460938 212.722656 193.957031 212.917969 194.417969 213.199219 C 194.878906 213.480469 195.28125 213.828125 195.628906 214.242188 C 195.972656 214.65625 196.238281 215.117188 196.429688 215.625 C 196.617188 216.128906 196.71875 216.652344 196.734375 217.191406 C 196.746094 217.730469 196.671875 218.257812 196.511719 218.773438 Z M 220.144531 199.257812 C 219.917969 199.480469 219.675781 199.679688 219.410156 199.855469 C 219.148438 200.027344 218.871094 200.175781 218.578125 200.296875 C 218.285156 200.417969 217.984375 200.507812 217.671875 200.570312 C 217.363281 200.632812 217.050781 200.660156 216.734375 200.660156 C 216.417969 200.660156 216.105469 200.632812 215.792969 200.570312 C 215.484375 200.507812 215.183594 200.417969 214.890625 200.296875 C 214.597656 200.175781 214.320312 200.027344 214.054688 199.855469 C 213.792969 199.679688 213.550781 199.480469 213.324219 199.257812 L 200.882812 186.816406 C 200.722656 186.65625 200.539062 186.535156 200.328125 186.449219 C 200.121094 186.363281 199.90625 186.320312 199.679688 186.320312 C 199.453125 186.320312 199.238281 186.363281 199.027344 186.449219 C 198.820312 186.535156 198.636719 186.65625 198.476562 186.816406 C 198.316406 186.976562 198.195312 187.160156 198.109375 187.367188 C 198.023438 187.578125 197.980469 187.792969 197.980469 188.019531 C 197.980469 188.246094 198.023438 188.460938 198.109375 188.667969 C 198.195312 188.878906 198.316406 189.0625 198.476562 189.222656 L 210.921875 201.660156 C 211.542969 202.285156 211.964844 203.023438 212.179688 203.878906 C 212.277344 204.269531 212.328125 204.667969 212.332031 205.070312 C 212.332031 205.386719 212.300781 205.699219 212.238281 206.011719 C 212.175781 206.320312 212.085938 206.621094 211.964844 206.914062 C 211.84375 207.207031 211.695312 207.484375 211.519531 207.746094 C 211.34375 208.011719 211.144531 208.253906 210.917969 208.476562 C 210.695312 208.703125 210.453125 208.902344 210.1875 209.078125 C 209.925781 209.253906 209.648438 209.402344 209.355469 209.523438 C 209.0625 209.644531 208.761719 209.734375 208.449219 209.796875 C 208.140625 209.859375 207.828125 209.890625 207.511719 209.890625 C 207.105469 209.886719 206.710938 209.835938 206.320312 209.738281 C 205.464844 209.523438 204.722656 209.101562 204.101562 208.476562 L 191.65625 196.039062 C 191.5 195.878906 191.316406 195.757812 191.105469 195.671875 C 190.898438 195.585938 190.679688 195.542969 190.457031 195.542969 C 190.230469 195.542969 190.015625 195.585938 189.804688 195.671875 C 189.597656 195.757812 189.414062 195.878906 189.253906 196.039062 C 189.097656 196.199219 188.972656 196.382812 188.886719 196.589844 C 188.800781 196.796875 188.757812 197.015625 188.757812 197.242188 C 188.757812 197.464844 188.800781 197.683594 188.886719 197.890625 C 188.972656 198.097656 189.09375 198.28125 189.253906 198.441406 L 201.695312 210.882812 C 202.320312 211.503906 202.742188 212.246094 202.957031 213.101562 C 203.054688 213.492188 203.109375 213.886719 203.109375 214.289062 C 203.109375 214.78125 203.035156 215.257812 202.890625 215.722656 C 202.746094 216.191406 202.535156 216.625 202.257812 217.027344 C 201.980469 217.429688 201.648438 217.78125 201.261719 218.082031 C 200.878906 218.386719 200.457031 218.621094 200 218.796875 C 200.023438 218.664062 200.039062 218.535156 200.054688 218.40625 C 200.160156 217.613281 200.148438 216.820312 200.023438 216.03125 C 199.945312 215.511719 199.816406 215.003906 199.636719 214.511719 C 199.460938 214.015625 199.234375 213.546875 198.964844 213.09375 C 198.699219 212.644531 198.386719 212.222656 198.039062 211.832031 C 197.6875 211.441406 197.304688 211.085938 196.882812 210.769531 C 196.464844 210.449219 196.023438 210.175781 195.550781 209.945312 C 195.078125 209.714844 194.589844 209.527344 194.082031 209.390625 C 193.578125 209.253906 193.0625 209.164062 192.539062 209.128906 C 192.015625 209.089844 191.492188 209.101562 190.96875 209.164062 C 190.976562 209.117188 190.984375 209.070312 190.992188 209.023438 C 191.039062 208.667969 191.066406 208.308594 191.070312 207.945312 C 191.070312 207.367188 191.007812 206.792969 190.886719 206.226562 C 190.765625 205.65625 190.585938 205.109375 190.351562 204.582031 C 190.113281 204.050781 189.824219 203.554688 189.480469 203.085938 C 189.136719 202.617188 188.75 202.191406 188.316406 201.808594 C 187.882812 201.421875 187.414062 201.085938 186.90625 200.800781 C 186.402344 200.515625 185.875 200.285156 185.320312 200.109375 C 184.769531 199.9375 184.203125 199.824219 183.625 199.769531 C 183.046875 199.714844 182.472656 199.722656 181.894531 199.789062 C 181.902344 199.746094 181.910156 199.699219 181.914062 199.65625 C 181.992188 199.074219 182.007812 198.492188 181.964844 197.910156 C 181.917969 197.328125 181.808594 196.753906 181.640625 196.195312 C 181.472656 195.632812 181.246094 195.097656 180.964844 194.585938 C 180.679688 194.070312 180.347656 193.59375 179.960938 193.15625 C 179.574219 192.714844 179.148438 192.320312 178.675781 191.96875 C 178.207031 191.621094 177.707031 191.324219 177.171875 191.082031 C 176.640625 190.839844 176.085938 190.660156 175.511719 190.535156 C 174.941406 190.410156 174.363281 190.351562 173.777344 190.351562 C 173.457031 190.351562 173.140625 190.371094 172.824219 190.410156 C 172.832031 190.367188 172.835938 190.324219 172.84375 190.28125 C 173 189.128906 172.914062 187.996094 172.585938 186.878906 C 172.257812 185.761719 171.714844 184.761719 170.960938 183.875 C 170.820312 183.707031 170.675781 183.542969 170.519531 183.382812 C 170.363281 183.226562 170.195312 183.085938 170.03125 182.941406 C 168.828125 181.917969 167.445312 181.296875 165.878906 181.074219 C 165.332031 180.996094 164.777344 180.972656 164.222656 181.003906 C 164.019531 181.015625 163.820312 181.035156 163.621094 181.058594 C 161.78125 181.296875 160.203125 182.074219 158.890625 183.382812 C 158.890625 183.382812 151.40625 190.867188 151.40625 190.867188 C 151.105469 191.171875 150.828125 191.5 150.574219 191.847656 L 148.097656 189.371094 C 147.53125 188.804688 146.996094 188.214844 146.488281 187.597656 C 145.980469 186.980469 145.503906 186.339844 145.0625 185.675781 C 144.617188 185.011719 144.207031 184.328125 143.828125 183.625 C 143.453125 182.917969 143.109375 182.199219 142.804688 181.460938 C 142.5 180.722656 142.230469 179.972656 141.996094 179.207031 C 141.765625 178.441406 141.570312 177.667969 141.414062 176.886719 C 141.257812 176.101562 141.140625 175.3125 141.0625 174.515625 C 140.984375 173.722656 140.945312 172.925781 140.945312 172.125 C 140.945312 171.328125 140.984375 170.53125 141.0625 169.734375 C 141.140625 168.941406 141.257812 168.152344 141.414062 167.367188 C 141.566406 166.585938 141.761719 165.8125 141.992188 165.046875 C 142.226562 164.28125 142.496094 163.53125 142.800781 162.792969 C 143.105469 162.054688 143.445312 161.332031 143.824219 160.628906 C 144.199219 159.925781 144.609375 159.238281 145.054688 158.574219 C 145.496094 157.910156 145.972656 157.269531 146.480469 156.652344 C 146.988281 156.035156 147.523438 155.445312 148.085938 154.878906 C 148.652344 154.316406 149.242188 153.777344 149.859375 153.273438 C 150.480469 152.765625 151.121094 152.289062 151.785156 151.847656 C 152.449219 151.402344 153.132812 150.992188 153.835938 150.617188 C 154.542969 150.238281 155.265625 149.898438 156.003906 149.59375 C 156.738281 149.289062 157.492188 149.019531 158.257812 148.785156 C 159.019531 148.554688 159.792969 148.363281 160.578125 148.207031 C 161.363281 148.050781 162.152344 147.933594 162.945312 147.855469 C 163.742188 147.777344 164.539062 147.738281 165.335938 147.738281 C 166.136719 147.738281 166.933594 147.777344 167.730469 147.855469 C 168.523438 147.933594 169.3125 148.050781 170.097656 148.207031 C 170.878906 148.363281 171.65625 148.558594 172.417969 148.789062 C 173.183594 149.023438 173.933594 149.292969 174.671875 149.597656 C 175.410156 149.902344 176.132812 150.246094 176.835938 150.621094 C 177.539062 151 178.226562 151.410156 178.890625 151.851562 C 179.554688 152.296875 180.195312 152.773438 180.8125 153.28125 C 181.429688 153.785156 182.019531 154.324219 182.585938 154.886719 L 184.988281 157.292969 L 170.1875 172.089844 C 169.867188 172.414062 169.613281 172.785156 169.4375 173.207031 C 169.257812 173.628906 169.164062 174.066406 169.152344 174.523438 C 169.140625 174.984375 169.21875 175.425781 169.378906 175.855469 C 169.539062 176.28125 169.773438 176.664062 170.082031 177.003906 C 170.121094 177.046875 170.148438 177.09375 170.1875 177.132812 C 170.785156 177.730469 171.4375 178.265625 172.140625 178.734375 C 172.84375 179.203125 173.585938 179.597656 174.367188 179.921875 C 175.148438 180.242188 175.953125 180.488281 176.78125 180.652344 C 177.609375 180.816406 178.449219 180.898438 179.292969 180.898438 C 180.136719 180.898438 180.976562 180.816406 181.804688 180.652344 C 182.632812 180.488281 183.4375 180.242188 184.21875 179.921875 C 185 179.597656 185.742188 179.203125 186.445312 178.734375 C 187.148438 178.265625 187.800781 177.730469 188.398438 177.132812 L 196.617188 168.917969 L 207.699219 180 L 210.746094 183.042969 L 220.144531 192.441406 C 220.367188 192.664062 220.566406 192.90625 220.742188 193.171875 C 220.914062 193.433594 221.0625 193.710938 221.183594 194.003906 C 221.304688 194.296875 221.394531 194.597656 221.457031 194.910156 C 221.519531 195.21875 221.550781 195.53125 221.550781 195.847656 C 221.550781 196.164062 221.519531 196.476562 221.457031 196.789062 C 221.394531 197.097656 221.304688 197.398438 221.183594 197.691406 C 221.0625 197.984375 220.914062 198.261719 220.742188 198.527344 C 220.566406 198.789062 220.367188 199.03125 220.144531 199.257812 Z M 226.691406 189.371094 L 224.019531 192.039062 C 223.632812 191.296875 223.140625 190.628906 222.546875 190.035156 L 210.105469 177.59375 L 198.488281 165.980469 C 198.425781 165.671875 198.289062 165.402344 198.078125 165.167969 C 197.867188 164.9375 197.613281 164.773438 197.3125 164.683594 C 197.011719 164.59375 196.710938 164.585938 196.40625 164.660156 C 196.101562 164.738281 195.839844 164.886719 195.617188 165.109375 L 195.414062 165.3125 L 194.210938 166.511719 L 185.992188 174.730469 C 185.554688 175.167969 185.074219 175.5625 184.558594 175.90625 C 184.039062 176.25 183.492188 176.542969 182.917969 176.78125 C 182.34375 177.019531 181.75 177.199219 181.140625 177.320312 C 180.53125 177.441406 179.914062 177.5 179.292969 177.5 C 178.671875 177.5 178.054688 177.441406 177.445312 177.320312 C 176.835938 177.199219 176.242188 177.019531 175.667969 176.78125 C 175.09375 176.542969 174.546875 176.25 174.03125 175.90625 C 173.511719 175.5625 173.035156 175.167969 172.59375 174.730469 C 172.515625 174.652344 172.515625 174.570312 172.59375 174.492188 L 187.394531 159.695312 L 188.59375 158.492188 L 189.796875 157.292969 L 192.203125 154.886719 C 192.203125 154.882812 194.480469 152.609375 194.480469 152.609375 C 202.90625 144.183594 218.714844 146.914062 226.691406 154.886719 C 236.199219 164.394531 236.199219 179.863281 226.691406 189.371094 Z M 226.691406 189.371094 " fill-opacity="1" fill-rule="nonzero"/></g><g fill="#89ceff" fill-opacity="1"><g transform="translate(-0.322594, 196.874987)"><g><path d="M 13.886719 -12.132812 L 5.375 -12.132812 L 5.375 -20.296875 L 2.472656 -20.296875 L 2.472656 0 L 5.375 0 L 5.375 -9.257812 L 13.886719 -9.257812 L 13.886719 0 L 16.816406 0 L 16.816406 -20.296875 L 13.886719 -20.296875 Z M 13.886719 -12.132812 "/></g></g></g><g fill="#89ceff" fill-opacity="1"><g transform="translate(18.966055, 196.874987)"><g><path d="M 17.421875 -8.453125 C 17.105469 -13.339844 13.308594 -15.78125 9.457031 -15.78125 C 5.347656 -15.78125 1.378906 -13.109375 1.378906 -7.761719 C 1.378906 -2.414062 5.40625 0.289062 9.402344 0.289062 C 12.589844 0.289062 15.78125 -1.410156 16.960938 -4.800781 L 14.058594 -4.800781 C 13.136719 -3.046875 11.355469 -2.214844 9.429688 -2.214844 C 7.101562 -2.214844 4.195312 -4.054688 4.195312 -7.101562 L 17.363281 -7.101562 C 17.421875 -7.359375 17.449219 -7.648438 17.449219 -7.964844 C 17.449219 -8.136719 17.449219 -8.277344 17.421875 -8.453125 Z M 14.460938 -9.429688 L 4.3125 -9.429688 C 4.886719 -12.1875 7.1875 -13.308594 9.457031 -13.308594 C 11.699219 -13.308594 13.914062 -12.21875 14.460938 -9.429688 Z M 14.460938 -9.429688 "/></g></g></g><g fill="#89ceff" fill-opacity="1"><g transform="translate(37.938504, 196.874987)"><g><path d="M 4.972656 -13.625 L 4.972656 -15.550781 L 2.15625 -15.550781 L 2.15625 0 L 4.972656 0 L 4.972656 -8.453125 C 4.972656 -11.152344 6.582031 -13.28125 9.542969 -13.28125 C 12.9375 -13.28125 13.710938 -11.269531 13.710938 -8.335938 L 13.710938 0 L 16.5 0 L 16.5 -8.367188 C 16.5 -12.820312 14.488281 -15.78125 9.746094 -15.78125 C 7.789062 -15.78125 6.125 -15.292969 4.972656 -13.625 Z M 4.972656 -13.625 "/></g></g></g><g fill="#89ceff" fill-opacity="1"><g transform="translate(56.565994, 196.874987)"><g><path d="M 4.945312 -13.625 L 4.945312 -15.523438 L 2.15625 -15.523438 L 2.15625 0 L 4.945312 0 L 4.945312 -8.421875 C 4.945312 -11.269531 7.128906 -13.367188 9.746094 -13.367188 C 10.207031 -13.367188 10.695312 -13.308594 11.183594 -13.167969 L 11.183594 -15.636719 C 10.550781 -15.78125 9.945312 -15.867188 9.34375 -15.867188 C 7.617188 -15.867188 6.066406 -15.179688 4.945312 -13.625 Z M 4.945312 -13.625 "/></g></g></g><g fill="#89ceff" fill-opacity="1"><g transform="translate(68.639373, 196.874987)"><g><path d="M 1.984375 -19.546875 C 1.984375 -18.457031 2.875 -17.910156 3.738281 -17.910156 C 4.628906 -17.910156 5.492188 -18.457031 5.492188 -19.546875 C 5.492188 -20.640625 4.628906 -21.15625 3.765625 -21.15625 C 2.875 -21.15625 1.984375 -20.613281 1.984375 -19.546875 Z M 2.328125 -15.726562 L 5.144531 -15.726562 L 5.144531 0 L 2.328125 0 Z M 2.328125 -15.726562 "/></g></g></g><g fill="#89ceff" fill-opacity="1"><g transform="translate(76.372076, 196.874987)"><g><path d="M 14.863281 -2.042969 L 14.863281 4.542969 L 17.679688 4.542969 L 17.679688 -15.550781 L 14.863281 -15.550781 L 14.863281 -13.484375 C 13.742188 -15.179688 11.554688 -15.8125 9.601562 -15.8125 C 4.195312 -15.8125 1.234375 -11.988281 1.234375 -7.734375 C 1.234375 -3.507812 4.371094 0.257812 9.628906 0.257812 C 11.554688 0.257812 13.511719 -0.203125 14.863281 -2.042969 Z M 14.863281 -7.789062 C 14.863281 -4.082031 12.246094 -2.242188 9.628906 -2.242188 C 6.179688 -2.242188 4.054688 -5.003906 4.054688 -7.789062 C 4.054688 -10.578125 6.179688 -13.339844 9.628906 -13.339844 C 12.21875 -13.339844 14.863281 -11.5 14.863281 -7.789062 Z M 14.863281 -7.789062 "/></g></g></g><g fill="#89ceff" fill-opacity="1"><g transform="translate(96.235654, 196.874987)"><g><path d="M 13.625 -2.042969 L 13.625 0 L 16.300781 0 L 16.300781 -15.695312 L 13.484375 -15.695312 L 13.484375 -7.101562 C 13.484375 -4.371094 11.871094 -2.269531 8.910156 -2.269531 C 5.519531 -2.269531 4.773438 -4.285156 4.773438 -7.1875 L 4.773438 -15.695312 L 1.953125 -15.695312 L 1.953125 -7.1875 C 1.953125 -2.730469 3.996094 0.230469 8.710938 0.230469 C 10.722656 0.230469 12.476562 -0.34375 13.625 -2.042969 Z M 13.625 -2.042969 "/></g></g></g><g fill="#89ceff" fill-opacity="1"><g transform="translate(114.748165, 196.874987)"><g><path d="M 17.421875 -8.453125 C 17.105469 -13.339844 13.308594 -15.78125 9.457031 -15.78125 C 5.347656 -15.78125 1.378906 -13.109375 1.378906 -7.761719 C 1.378906 -2.414062 5.40625 0.289062 9.402344 0.289062 C 12.589844 0.289062 15.78125 -1.410156 16.960938 -4.800781 L 14.058594 -4.800781 C 13.136719 -3.046875 11.355469 -2.214844 9.429688 -2.214844 C 7.101562 -2.214844 4.195312 -4.054688 4.195312 -7.101562 L 17.363281 -7.101562 C 17.421875 -7.359375 17.449219 -7.648438 17.449219 -7.964844 C 17.449219 -8.136719 17.449219 -8.277344 17.421875 -8.453125 Z M 14.460938 -9.429688 L 4.3125 -9.429688 C 4.886719 -12.1875 7.1875 -13.308594 9.457031 -13.308594 C 11.699219 -13.308594 13.914062 -12.21875 14.460938 -9.429688 Z M 14.460938 -9.429688 "/></g></g></g><g fill="#89ceff" fill-opacity="1"><g transform="translate(242.934467, 197.624987)"><g><path d="M 9.429688 -18.234375 L 13.296875 -18.234375 L 13.296875 -21 L 2.558594 -21 L 2.558594 -18.234375 L 6.425781 -18.234375 L 6.425781 -2.796875 L 2.558594 -2.796875 L 2.558594 0 L 13.296875 0 L 13.296875 -2.796875 L 9.429688 -2.796875 Z M 9.429688 -18.234375 "/></g></g></g><g fill="#89ceff" fill-opacity="1"><g transform="translate(258.757273, 197.624987)"><g><path d="M 4.253906 -11.453125 C 4.253906 -13.117188 5.917969 -13.800781 7.703125 -13.800781 C 9.457031 -13.800781 10.976562 -13.117188 11.125 -11.691406 L 14.011719 -11.691406 C 13.800781 -15.050781 10.976562 -16.417969 7.792969 -16.417969 C 4.671875 -16.417969 1.367188 -15.109375 1.367188 -11.390625 C 1.367188 -7.792969 4.789062 -6.902344 7.675781 -6.78125 C 9.070312 -6.722656 11.570312 -6.425781 11.570312 -4.640625 C 11.570312 -2.738281 9.28125 -2.261719 7.824219 -2.261719 C 5.828125 -2.261719 4.164062 -3.152344 4.046875 -4.9375 L 1.128906 -4.9375 C 1.339844 -1.128906 4.433594 0.269531 7.761719 0.269531 C 10.796875 0.269531 14.484375 -0.832031 14.484375 -4.582031 C 14.484375 -8.238281 11.035156 -9.191406 8 -9.398438 C 6.574219 -9.488281 4.253906 -9.429688 4.253906 -11.453125 Z M 4.253906 -11.453125 "/></g></g></g><g fill="#89ceff" fill-opacity="1"><g transform="translate(274.252916, 197.624987)"><g><path d="M 18.949219 0 L 18.949219 -16.09375 L 16.03125 -16.09375 L 16.0625 -13.949219 C 14.632812 -15.882812 12.226562 -16.359375 10.230469 -16.359375 C 4.789062 -16.359375 1.636719 -12.464844 1.636719 -8.121094 C 1.636719 -3.6875 4.671875 0.269531 10.292969 0.269531 C 12.285156 0.238281 14.871094 -0.417969 16.03125 -2.171875 L 16.03125 0 Z M 16.03125 -8.0625 C 16.03125 -4.195312 12.910156 -2.320312 10.230469 -2.320312 C 6.664062 -2.320312 4.550781 -5.085938 4.550781 -8.121094 C 4.550781 -11.304688 6.691406 -13.800781 10.230469 -13.800781 C 12.96875 -13.800781 16.03125 -11.898438 16.03125 -8.0625 Z M 16.03125 -8.0625 "/></g></g></g><g fill="#89ceff" fill-opacity="1"><g transform="translate(295.131882, 197.624987)"><g><path d="M 5.234375 -14.011719 L 5.234375 -20.820312 L 2.320312 -20.820312 L 2.320312 0 L 5.234375 0 L 5.234375 -2.171875 C 6.394531 -0.417969 8.597656 0.238281 10.589844 0.269531 C 16.210938 0.269531 18.917969 -3.6875 18.917969 -8.121094 C 18.917969 -12.464844 16.09375 -16.359375 10.648438 -16.359375 C 8.65625 -16.359375 6.632812 -15.914062 5.234375 -14.011719 Z M 5.234375 -8.0625 C 5.234375 -11.898438 7.941406 -13.800781 10.648438 -13.800781 C 14.21875 -13.800781 16.003906 -10.945312 16.003906 -8.0625 C 16.003906 -5.144531 14.1875 -2.320312 10.617188 -2.320312 C 7.941406 -2.320312 5.234375 -4.195312 5.234375 -8.0625 Z M 5.234375 -8.0625 "/></g></g></g><g fill="#89ceff" fill-opacity="1"><g transform="translate(315.386263, 197.624987)"><g><path d="M 18.027344 -8.746094 C 17.699219 -13.800781 13.773438 -16.328125 9.785156 -16.328125 C 5.53125 -16.328125 1.429688 -13.5625 1.429688 -8.03125 C 1.429688 -2.5 5.59375 0.296875 9.726562 0.296875 C 13.027344 0.296875 16.328125 -1.457031 17.550781 -4.96875 L 14.546875 -4.96875 C 13.59375 -3.152344 11.75 -2.289062 9.757812 -2.289062 C 7.347656 -2.289062 4.34375 -4.195312 4.34375 -7.347656 L 17.964844 -7.347656 C 18.027344 -7.613281 18.054688 -7.914062 18.054688 -8.238281 C 18.054688 -8.417969 18.054688 -8.566406 18.027344 -8.746094 Z M 14.960938 -9.757812 L 4.460938 -9.757812 C 5.058594 -12.613281 7.4375 -13.773438 9.785156 -13.773438 C 12.105469 -13.773438 14.398438 -12.640625 14.960938 -9.757812 Z M 14.960938 -9.757812 "/></g></g></g><g fill="#89ceff" fill-opacity="1"><g transform="translate(335.016061, 197.624987)"><g><path d="M 2.230469 0 L 5.144531 0 L 5.144531 -20.820312 L 2.230469 -20.820312 Z M 2.230469 0 "/></g></g></g><g fill="#89ceff" fill-opacity="1"><g transform="translate(342.392109, 197.624987)"><g><path d="M 18.949219 0 L 18.949219 -16.09375 L 16.03125 -16.09375 L 16.0625 -13.949219 C 14.632812 -15.882812 12.226562 -16.359375 10.230469 -16.359375 C 4.789062 -16.359375 1.636719 -12.464844 1.636719 -8.121094 C 1.636719 -3.6875 4.671875 0.269531 10.292969 0.269531 C 12.285156 0.238281 14.871094 -0.417969 16.03125 -2.171875 L 16.03125 0 Z M 16.03125 -8.0625 C 16.03125 -4.195312 12.910156 -2.320312 10.230469 -2.320312 C 6.664062 -2.320312 4.550781 -5.085938 4.550781 -8.121094 C 4.550781 -11.304688 6.691406 -13.800781 10.230469 -13.800781 C 12.96875 -13.800781 16.03125 -11.898438 16.03125 -8.0625 Z M 16.03125 -8.0625 "/></g></g></g></svg>